# xmcd
#
# Track frame offsets:
#	150
#	25873
#	47557
#	71656
#	90539
#	116111
#	134359
#	153523
#	171143
#	193002
#	207772
#	216051
#	230242
#	251571
#
# Disc length: 3624 seconds
#
# Revision: 3
# Processed by: cddbd v1.5.2PL0 Copyright (c) Steve Scherf et al.
# Submitted via: audiograbber 1.83.01
#
DISCID=c80e260e
DTITLE=Various Artist - Rare Trax 06 - Blues Today
DYEAR=1998
DGENRE=Blues
TTITLE0=Coco Robicheaux - Cottonmouth
TTITLE1=Smokin' Joe Kubek - Take Your Best Shot
TTITLE2=The Paladins - Follow Your Heart
TTITLE3=Ronnie Wood - Must Be Love
TTITLE4=Buddy Guy - Heavy Love
TTITLE5=James Armstrong - Away From Home
TTITLE6=Alvin Youngblood Hart - Illinois Blues
TTITLE7=Keb' Mo' - Everything I Need
TTITLE8=The Holmes Brothers - Got Myself Together
TTITLE9=Jimmy Thackery and The Drivers - Hang Up And Drive
TTITLE10=Mike Morgan and The Crawl - Wino II
TTITLE11=Johnny Nocturne Band - New Kind Of Mambo
TTITLE12=Taj Mahal - The New Hula Blues
TTITLE13=Rainer and Das Combo - Broken Promises
EXTD=
EXTT0=
EXTT1=
EXTT2=
EXTT3=
EXTT4=
EXTT5=
EXTT6=
EXTT7=
EXTT8=
EXTT9=
EXTT10=
EXTT11=
EXTT12=
EXTT13=
PLAYORDER=
